<svg width="128" height="128" viewBox="0 0 128 128" fill="none" xmlns="http://www.w3.org/2000/svg">
<path d="M112 112L80 80M16 53.3333C16 58.236 16.9657 63.0907 18.8418 67.6202C20.718 72.1497 23.468 76.2653 26.9347 79.732C30.4014 83.1987 34.517 85.9487 39.0465 87.8248C43.576 89.701 48.4307 90.6667 53.3333 90.6667C58.236 90.6667 63.0907 89.701 67.6202 87.8248C72.1497 85.9487 76.2653 83.1987 79.732 79.732C83.1987 76.2653 85.9487 72.1497 87.8248 67.6202C89.701 63.0907 90.6667 58.236 90.6667 53.3333C90.6667 48.4307 89.701 43.576 87.8248 39.0465C85.9487 34.517 83.1987 30.4014 79.732 26.9347C76.2653 23.468 72.1497 20.718 67.6202 18.8418C63.0907 16.9657 58.236 16 53.3333 16C48.4307 16 43.576 16.9657 39.0465 18.8418C34.517 20.718 30.4014 23.468 26.9347 26.9347C23.468 30.4014 20.718 34.517 18.8418 39.0465C16.9657 43.576 16 48.4307 16 53.3333Z" stroke="black" stroke-width="10.6667" stroke-linecap="round" stroke-linejoin="round"/>
</svg>
