<svg width="500" height="500" viewBox="0 0 500 500" fill="none" xmlns="http://www.w3.org/2000/svg">
<path d="M250 500C388.071 500 500 388.071 500 250C500 111.929 388.071 0 250 0C111.929 0 0 111.929 0 250C0 388.071 111.929 500 250 500Z" fill="white"/>
<path d="M473.772 249.837C473.772 373.549 373.484 473.837 249.772 473.837C126.06 473.837 25.7722 373.549 25.7722 249.837C25.7722 126.125 126.06 25.8368 249.772 25.8368C373.484 25.8368 473.772 126.125 473.772 249.837Z" stroke="url(#paint0_radial_1_11)" stroke-width="2"/>
<path d="M288.922 143.845L245.513 223.4C245.097 224.165 244.89 224.994 244.89 225.885V283.407C244.89 284.55 245.162 284.618 245.706 283.611L336.637 116.48C336.665 116.431 336.68 116.376 336.68 116.32C336.681 116.264 336.665 116.209 336.637 116.16C336.608 116.112 336.567 116.071 336.518 116.043C336.468 116.015 336.412 116 336.355 116H155.503C155.44 115.999 155.378 116.015 155.324 116.046C155.269 116.076 155.224 116.12 155.192 116.173C155.16 116.226 155.144 116.287 155.143 116.348C155.143 116.41 155.16 116.47 155.191 116.523L170.007 142.523C170.115 142.716 170.275 142.878 170.471 142.991C170.667 143.103 170.891 143.162 171.121 143.162C185.689 143.104 200.258 143.124 214.827 143.221C239.322 143.376 263.823 143.264 288.328 142.886C288.444 142.886 288.557 142.915 288.658 142.97C288.759 143.025 288.843 143.105 288.903 143.201C288.963 143.298 288.996 143.408 288.999 143.521C289.003 143.634 288.976 143.746 288.922 143.845Z" fill="url(#paint1_linear_1_11)"/>
<path d="M247.458 357.657C207.76 284.613 167.167 211.245 125.678 137.553C125.475 137.188 125.176 136.883 124.813 136.671C124.45 136.459 124.036 136.347 123.614 136.346L92.438 136.434C92.362 136.434 92.287 136.454 92.221 136.491C92.155 136.529 92.1 136.583 92.062 136.649C92.023 136.714 92.002 136.789 92 136.866C91.998 136.943 92.016 137.019 92.052 137.087L247.532 415.411C247.978 416.196 248.413 416.196 248.839 415.411L400.043 137.364C400.081 137.294 400.101 137.215 400.101 137.136C400.101 137.057 400.081 136.979 400.042 136.91C400.003 136.842 399.947 136.785 399.88 136.745C399.813 136.704 399.736 136.682 399.657 136.681L368.555 136.419C368.339 136.419 368.125 136.481 367.934 136.599C367.743 136.716 367.583 136.885 367.471 137.087L248.141 357.657C247.913 358.073 247.686 358.073 247.458 357.657Z" fill="url(#paint2_linear_1_11)"/>
<defs>
<radialGradient id="paint0_radial_1_11" cx="0" cy="0" r="1" gradientUnits="userSpaceOnUse" gradientTransform="translate(84 94) rotate(46.0512) scale(462.526 462.526)">
<stop stop-color="#FD9F3A"/>
<stop offset="0.364583" stop-color="#13B9D1"/>
<stop offset="0.657553" stop-color="#F1208B"/>
<stop offset="1" stop-color="#114C94"/>
</radialGradient>
<linearGradient id="paint1_linear_1_11" x1="245.912" y1="116" x2="245.912" y2="284.319" gradientUnits="userSpaceOnUse">
<stop stop-color="#FD9F3A"/>
<stop offset="1" stop-color="#F1208B"/>
</linearGradient>
<linearGradient id="paint2_linear_1_11" x1="103" y1="136" x2="251" y2="410" gradientUnits="userSpaceOnUse">
<stop stop-color="#F1208B"/>
<stop offset="0.671875" stop-color="#114C94"/>
<stop offset="1" stop-color="#13B9D1"/>
</linearGradient>
</defs>
</svg>
