<svg width="718" height="200" viewBox="0 0 718 200" fill="none" xmlns="http://www.w3.org/2000/svg">
<mask id="mask0_2_10" style="mask-type:luminance" maskUnits="userSpaceOnUse" x="0" y="0" width="718" height="200">
<path d="M717.336 0H0V200H717.336V0Z" fill="white"/>
</mask>
<g mask="url(#mask0_2_10)">
<path d="M101.836 182.638C147.937 182.638 185.309 145.266 185.309 99.1653C185.309 53.0647 147.937 15.6928 101.836 15.6928C55.7358 15.6928 18.364 53.0647 18.364 99.1653C18.364 145.266 55.7358 182.638 101.836 182.638Z" fill="white"/>
<path d="M174.886 99.1108C174.886 139.497 142.146 172.236 101.76 172.236C61.3744 172.236 28.6351 139.497 28.6351 99.1108C28.6351 58.7249 61.3744 25.9856 101.76 25.9856C142.146 25.9856 174.886 58.7249 174.886 99.1108Z" stroke="url(#paint0_radial_2_10)" stroke-width="4"/>
<path d="M114.832 63.7214L100.338 90.2838C100.199 90.5393 100.13 90.8159 100.13 91.1135V110.32C100.13 110.701 100.221 110.724 100.403 110.388L130.763 54.5842C130.773 54.568 130.778 54.5496 130.778 54.5309C130.778 54.5122 130.773 54.4938 130.764 54.4776C130.754 54.4613 130.74 54.4479 130.724 54.4385C130.707 54.4291 130.688 54.4241 130.669 54.4241H70.2848C70.2638 54.4239 70.2431 54.4291 70.2249 54.4393C70.2067 54.4494 70.1915 54.4641 70.1809 54.4819C70.1704 54.4996 70.1648 54.5197 70.1647 54.5403C70.1647 54.5608 70.1702 54.581 70.1807 54.5988L75.1276 63.2798C75.1634 63.3444 75.2169 63.3984 75.2823 63.4359C75.3477 63.4735 75.4227 63.4933 75.4994 63.4933C80.3637 63.4739 85.2281 63.4804 90.0924 63.5127C98.2712 63.5645 106.452 63.5273 114.634 63.4011C114.672 63.401 114.71 63.4106 114.744 63.429C114.777 63.4474 114.806 63.4741 114.826 63.5063C114.846 63.5386 114.857 63.5753 114.858 63.613C114.859 63.6507 114.85 63.688 114.832 63.7214Z" fill="url(#paint1_linear_2_10)"/>
<path d="M100.988 135.111C87.7329 110.722 74.1792 86.2255 60.3264 61.6203C60.2588 61.4985 60.1591 61.3968 60.0378 61.326C59.9166 61.2551 59.7783 61.2176 59.6374 61.2175L49.228 61.2466C49.2026 61.2467 49.1776 61.2534 49.1557 61.266C49.1337 61.2785 49.1153 61.2967 49.1024 61.3186C49.0895 61.3405 49.0824 61.3654 49.0818 61.391C49.0813 61.4167 49.0872 61.4421 49.0991 61.465L101.012 154.395C101.161 154.657 101.306 154.657 101.449 154.395L151.934 61.5572C151.947 61.5338 151.954 61.5077 151.954 61.4812C151.954 61.4547 151.947 61.4288 151.934 61.4059C151.921 61.383 151.902 61.3639 151.88 61.3505C151.857 61.3371 151.832 61.3297 151.805 61.3291L141.421 61.2418C141.349 61.2418 141.277 61.2625 141.213 61.3018C141.15 61.3411 141.096 61.3975 141.059 61.465L101.216 135.111C101.14 135.25 101.064 135.25 100.988 135.111Z" fill="url(#paint2_linear_2_10)"/>
<path d="M221.245 109L201.661 42.952H224.317L234.493 84.136L244.669 42.952H266.365L245.725 109H221.245ZM271.069 109V42.952H292.765V109H271.069ZM353.335 110.536C348.727 110.536 344.919 109.864 341.911 108.52C338.903 107.112 336.503 105.192 334.711 102.76C332.919 100.328 331.575 97.48 330.679 94.216C329.783 90.952 329.175 87.432 328.855 83.656H324.343V109H303.319V42.952H330.487C340.983 42.952 348.535 44.808 353.143 48.52C357.815 52.168 360.151 57.128 360.151 63.4C360.151 67.176 359.127 70.568 357.079 73.576C355.031 76.52 351.735 78.984 347.191 80.968C347.447 82.376 347.671 83.528 347.863 84.424C348.055 85.32 348.343 86.312 348.727 87.4C349.559 89.704 350.583 91.304 351.799 92.2C353.079 93.096 354.807 93.544 356.983 93.544C358.391 93.544 359.799 93.352 361.207 92.968L362.359 108.712C361.079 109.224 359.703 109.64 358.231 109.96C356.823 110.344 355.191 110.536 353.335 110.536ZM324.343 70.504H327.991C332.727 70.504 336.055 69.992 337.975 68.968C339.959 67.88 340.951 66.056 340.951 63.496C340.951 61.32 340.151 59.752 338.551 58.792C336.951 57.768 334.423 57.256 330.967 57.256H324.343V70.504ZM377.624 109V58.12H362.744V42.952H414.872V58.12H399.992V109H377.624ZM420.881 109V42.952H467.249V57.544H444.209V69.256H465.233V81.352H444.209V93.928H467.249V109H420.881ZM475.912 109V42.952H496.648V93.832H520.072L519.112 109H475.912Z" fill="url(#paint3_linear_2_10)"/>
<path d="M565.447 110.536C561.415 110.536 557.319 110.024 553.159 109C548.999 108.04 545.479 106.728 542.599 105.064L546.055 89.416C549.767 91.4 553.223 92.712 556.423 93.352C559.687 93.928 562.695 94.216 565.447 94.216C568.007 94.216 569.927 93.8 571.207 92.968C572.551 92.136 573.223 91.016 573.223 89.608C573.223 88.328 572.487 87.336 571.015 86.632C569.543 85.864 567.623 85.16 565.255 84.52C562.951 83.88 560.487 83.144 557.863 82.312C555.239 81.416 552.743 80.264 550.375 78.856C548.071 77.384 546.183 75.464 544.711 73.096C543.239 70.664 542.503 67.624 542.503 63.976C542.503 59.368 543.623 55.4 545.863 52.072C548.103 48.68 551.303 46.088 555.463 44.296C559.623 42.44 564.519 41.512 570.151 41.512C573.927 41.512 577.607 42.024 581.191 43.048C584.839 44.008 587.751 45.32 589.927 46.984L586.663 61.096C583.399 59.752 580.455 58.792 577.831 58.216C575.271 57.576 572.839 57.256 570.535 57.256C567.847 57.256 565.799 57.64 564.391 58.408C562.983 59.176 562.279 60.2 562.279 61.48C562.279 62.696 563.015 63.688 564.487 64.456C565.959 65.224 567.847 65.96 570.151 66.664C572.455 67.368 574.919 68.168 577.543 69.064C580.167 69.96 582.631 71.144 584.935 72.616C587.239 74.088 589.127 76.008 590.599 78.376C592.071 80.744 592.807 83.72 592.807 87.304C592.807 94.728 590.375 100.456 585.511 104.488C580.711 108.52 574.023 110.536 565.447 110.536ZM594.485 109L612.725 42.952H643.829L662.933 109H639.413L636.917 96.328H619.829L617.045 109H594.485ZM621.845 84.52H634.613L628.373 55.624L621.845 84.52ZM688.26 110.536C684.228 110.536 680.132 110.024 675.972 109C671.812 108.04 668.292 106.728 665.412 105.064L668.868 89.416C672.58 91.4 676.036 92.712 679.236 93.352C682.5 93.928 685.508 94.216 688.26 94.216C690.82 94.216 692.74 93.8 694.02 92.968C695.364 92.136 696.036 91.016 696.036 89.608C696.036 88.328 695.3 87.336 693.828 86.632C692.356 85.864 690.436 85.16 688.068 84.52C685.764 83.88 683.3 83.144 680.676 82.312C678.052 81.416 675.556 80.264 673.188 78.856C670.884 77.384 668.996 75.464 667.524 73.096C666.052 70.664 665.316 67.624 665.316 63.976C665.316 59.368 666.436 55.4 668.676 52.072C670.916 48.68 674.116 46.088 678.276 44.296C682.436 42.44 687.332 41.512 692.964 41.512C696.74 41.512 700.42 42.024 704.004 43.048C707.652 44.008 710.564 45.32 712.74 46.984L709.476 61.096C706.212 59.752 703.268 58.792 700.644 58.216C698.084 57.576 695.652 57.256 693.348 57.256C690.66 57.256 688.612 57.64 687.204 58.408C685.796 59.176 685.092 60.2 685.092 61.48C685.092 62.696 685.828 63.688 687.3 64.456C688.772 65.224 690.66 65.96 692.964 66.664C695.268 67.368 697.732 68.168 700.356 69.064C702.98 69.96 705.444 71.144 707.748 72.616C710.052 74.088 711.94 76.008 713.412 78.376C714.884 80.744 715.62 83.72 715.62 87.304C715.62 94.728 713.188 100.456 708.324 104.488C703.524 108.52 696.836 110.536 688.26 110.536Z" fill="url(#paint4_linear_2_10)"/>
<path d="M214.14 154L224.38 131.6H226.716L236.956 154H234.46L225.052 132.976H226.012L216.604 154H214.14ZM218.172 148.016L218.876 146.096H231.9L232.604 148.016H218.172ZM261.913 160.368C260.377 160.368 258.905 160.144 257.497 159.696C256.089 159.248 254.948 158.608 254.073 157.776L255.225 156.048C256.015 156.752 256.985 157.307 258.137 157.712C259.311 158.139 260.548 158.352 261.849 158.352C263.983 158.352 265.551 157.851 266.553 156.848C267.556 155.867 268.057 154.331 268.057 152.24V148.048L268.377 145.168L268.153 142.288V137.2H270.329V151.952C270.329 154.853 269.615 156.976 268.185 158.32C266.777 159.685 264.687 160.368 261.913 160.368ZM261.497 153.36C259.897 153.36 258.457 153.019 257.177 152.336C255.897 151.632 254.884 150.661 254.137 149.424C253.412 148.187 253.049 146.768 253.049 145.168C253.049 143.568 253.412 142.16 254.137 140.944C254.884 139.707 255.897 138.747 257.177 138.064C258.457 137.381 259.897 137.04 261.497 137.04C262.991 137.04 264.335 137.349 265.529 137.968C266.724 138.587 267.673 139.504 268.377 140.72C269.081 141.936 269.433 143.419 269.433 145.168C269.433 146.917 269.081 148.4 268.377 149.616C267.673 150.832 266.724 151.76 265.529 152.4C264.335 153.04 262.991 153.36 261.497 153.36ZM261.721 151.344C262.959 151.344 264.057 151.088 265.017 150.576C265.977 150.043 266.735 149.317 267.289 148.4C267.844 147.461 268.121 146.384 268.121 145.168C268.121 143.952 267.844 142.885 267.289 141.968C266.735 141.051 265.977 140.336 265.017 139.824C264.057 139.291 262.959 139.024 261.721 139.024C260.505 139.024 259.407 139.291 258.425 139.824C257.465 140.336 256.708 141.051 256.153 141.968C255.62 142.885 255.353 143.952 255.353 145.168C255.353 146.384 255.62 147.461 256.153 148.4C256.708 149.317 257.465 150.043 258.425 150.576C259.407 151.088 260.505 151.344 261.721 151.344ZM298.508 154.16C296.758 154.16 295.222 153.797 293.9 153.072C292.577 152.325 291.542 151.312 290.796 150.032C290.049 148.731 289.676 147.248 289.676 145.584C289.676 143.92 290.028 142.448 290.732 141.168C291.457 139.888 292.438 138.885 293.676 138.16C294.934 137.413 296.342 137.04 297.9 137.04C299.478 137.04 300.876 137.403 302.092 138.128C303.329 138.832 304.3 139.835 305.004 141.136C305.708 142.416 306.06 143.899 306.06 145.584C306.06 145.691 306.049 145.808 306.028 145.936C306.028 146.043 306.028 146.16 306.028 146.288H291.404V144.592H304.812L303.916 145.264C303.916 144.048 303.649 142.971 303.116 142.032C302.604 141.072 301.9 140.325 301.004 139.792C300.108 139.259 299.073 138.992 297.9 138.992C296.748 138.992 295.713 139.259 294.796 139.792C293.878 140.325 293.164 141.072 292.652 142.032C292.14 142.992 291.884 144.091 291.884 145.328V145.68C291.884 146.96 292.161 148.091 292.716 149.072C293.292 150.032 294.081 150.789 295.084 151.344C296.108 151.877 297.27 152.144 298.572 152.144C299.596 152.144 300.545 151.963 301.42 151.6C302.316 151.237 303.084 150.683 303.724 149.936L305.004 151.408C304.257 152.304 303.318 152.987 302.188 153.456C301.078 153.925 299.852 154.16 298.508 154.16ZM333.98 137.04C335.345 137.04 336.54 137.307 337.564 137.84C338.609 138.352 339.42 139.141 339.996 140.208C340.593 141.275 340.892 142.619 340.892 144.24V154H338.62V144.464C338.62 142.693 338.172 141.36 337.276 140.464C336.401 139.547 335.164 139.088 333.564 139.088C332.369 139.088 331.324 139.333 330.428 139.824C329.553 140.293 328.871 140.987 328.38 141.904C327.911 142.8 327.676 143.888 327.676 145.168V154H325.404V137.2H327.58V141.808L327.228 140.944C327.761 139.728 328.615 138.779 329.788 138.096C330.961 137.392 332.359 137.04 333.98 137.04ZM368.725 154.16C367.061 154.16 365.568 153.797 364.245 153.072C362.944 152.325 361.92 151.312 361.173 150.032C360.426 148.731 360.053 147.248 360.053 145.584C360.053 143.899 360.426 142.416 361.173 141.136C361.92 139.856 362.944 138.853 364.245 138.128C365.568 137.403 367.061 137.04 368.725 137.04C370.154 137.04 371.445 137.317 372.597 137.872C373.749 138.427 374.656 139.259 375.317 140.368L373.621 141.52C373.045 140.667 372.33 140.037 371.477 139.632C370.624 139.227 369.696 139.024 368.693 139.024C367.498 139.024 366.421 139.301 365.461 139.856C364.501 140.389 363.744 141.147 363.189 142.128C362.634 143.109 362.357 144.261 362.357 145.584C362.357 146.907 362.634 148.059 363.189 149.04C363.744 150.021 364.501 150.789 365.461 151.344C366.421 151.877 367.498 152.144 368.693 152.144C369.696 152.144 370.624 151.941 371.477 151.536C372.33 151.131 373.045 150.512 373.621 149.68L375.317 150.832C374.656 151.92 373.749 152.752 372.597 153.328C371.445 153.883 370.154 154.16 368.725 154.16ZM394.25 154V137.2H396.522V154H394.25ZM395.402 133.488C394.933 133.488 394.538 133.328 394.218 133.008C393.898 132.688 393.738 132.304 393.738 131.856C393.738 131.408 393.898 131.035 394.218 130.736C394.538 130.416 394.933 130.256 395.402 130.256C395.872 130.256 396.266 130.405 396.586 130.704C396.906 131.003 397.066 131.376 397.066 131.824C397.066 132.293 396.906 132.688 396.586 133.008C396.288 133.328 395.893 133.488 395.402 133.488ZM428.092 154V150.288L427.996 149.68V143.472C427.996 142.043 427.591 140.944 426.78 140.176C425.991 139.408 424.807 139.024 423.228 139.024C422.14 139.024 421.105 139.205 420.124 139.568C419.143 139.931 418.311 140.411 417.628 141.008L416.604 139.312C417.457 138.587 418.481 138.032 419.676 137.648C420.871 137.243 422.129 137.04 423.452 137.04C425.628 137.04 427.303 137.584 428.476 138.672C429.671 139.739 430.268 141.371 430.268 143.568V154H428.092ZM422.3 154.16C421.041 154.16 419.943 153.957 419.004 153.552C418.087 153.125 417.383 152.549 416.892 151.824C416.401 151.077 416.156 150.224 416.156 149.264C416.156 148.389 416.359 147.6 416.764 146.896C417.191 146.171 417.873 145.595 418.812 145.168C419.772 144.72 421.052 144.496 422.652 144.496H428.444V146.192H422.716C421.095 146.192 419.964 146.48 419.324 147.056C418.705 147.632 418.396 148.347 418.396 149.2C418.396 150.16 418.769 150.928 419.516 151.504C420.263 152.08 421.308 152.368 422.652 152.368C423.932 152.368 425.031 152.08 425.948 151.504C426.887 150.907 427.569 150.053 427.996 148.944L428.508 150.512C428.081 151.621 427.335 152.507 426.268 153.168C425.223 153.829 423.9 154.16 422.3 154.16ZM484.462 154.192C482.777 154.192 481.219 153.915 479.79 153.36C478.361 152.784 477.123 151.984 476.078 150.96C475.033 149.936 474.211 148.731 473.614 147.344C473.038 145.957 472.75 144.443 472.75 142.8C472.75 141.157 473.038 139.643 473.614 138.256C474.211 136.869 475.033 135.664 476.078 134.64C477.145 133.616 478.393 132.827 479.822 132.272C481.251 131.696 482.809 131.408 484.494 131.408C486.115 131.408 487.641 131.685 489.07 132.24C490.499 132.773 491.705 133.584 492.686 134.672L491.182 136.176C490.265 135.237 489.251 134.565 488.142 134.16C487.033 133.733 485.838 133.52 484.558 133.52C483.214 133.52 481.966 133.755 480.814 134.224C479.662 134.672 478.659 135.323 477.806 136.176C476.953 137.008 476.281 137.989 475.79 139.12C475.321 140.229 475.086 141.456 475.086 142.8C475.086 144.144 475.321 145.381 475.79 146.512C476.281 147.621 476.953 148.603 477.806 149.456C478.659 150.288 479.662 150.939 480.814 151.408C481.966 151.856 483.214 152.08 484.558 152.08C485.838 152.08 487.033 151.867 488.142 151.44C489.251 151.013 490.265 150.331 491.182 149.392L492.686 150.896C491.705 151.984 490.499 152.805 489.07 153.36C487.641 153.915 486.105 154.192 484.462 154.192ZM511.974 154V137.2H514.15V141.776L513.926 140.976C514.396 139.696 515.185 138.725 516.294 138.064C517.404 137.381 518.78 137.04 520.422 137.04V139.248C520.337 139.248 520.252 139.248 520.166 139.248C520.081 139.227 519.996 139.216 519.91 139.216C518.14 139.216 516.753 139.76 515.75 140.848C514.748 141.915 514.246 143.44 514.246 145.424V154H511.974ZM546.268 154.16C544.518 154.16 542.982 153.797 541.66 153.072C540.337 152.325 539.302 151.312 538.556 150.032C537.809 148.731 537.436 147.248 537.436 145.584C537.436 143.92 537.788 142.448 538.492 141.168C539.217 139.888 540.198 138.885 541.436 138.16C542.694 137.413 544.102 137.04 545.66 137.04C547.238 137.04 548.636 137.403 549.852 138.128C551.089 138.832 552.06 139.835 552.764 141.136C553.468 142.416 553.82 143.899 553.82 145.584C553.82 145.691 553.809 145.808 553.788 145.936C553.788 146.043 553.788 146.16 553.788 146.288H539.164V144.592H552.572L551.676 145.264C551.676 144.048 551.409 142.971 550.876 142.032C550.364 141.072 549.66 140.325 548.764 139.792C547.868 139.259 546.833 138.992 545.66 138.992C544.508 138.992 543.473 139.259 542.556 139.792C541.638 140.325 540.924 141.072 540.412 142.032C539.9 142.992 539.644 144.091 539.644 145.328V145.68C539.644 146.96 539.921 148.091 540.476 149.072C541.052 150.032 541.841 150.789 542.844 151.344C543.868 151.877 545.03 152.144 546.332 152.144C547.356 152.144 548.305 151.963 549.18 151.6C550.076 151.237 550.844 150.683 551.484 149.936L552.764 151.408C552.017 152.304 551.078 152.987 549.948 153.456C548.838 153.925 547.612 154.16 546.268 154.16ZM583.223 154V150.288L583.127 149.68V143.472C583.127 142.043 582.722 140.944 581.911 140.176C581.122 139.408 579.938 139.024 578.359 139.024C577.271 139.024 576.237 139.205 575.255 139.568C574.274 139.931 573.442 140.411 572.759 141.008L571.735 139.312C572.589 138.587 573.613 138.032 574.807 137.648C576.002 137.243 577.261 137.04 578.583 137.04C580.759 137.04 582.434 137.584 583.607 138.672C584.802 139.739 585.399 141.371 585.399 143.568V154H583.223ZM577.431 154.16C576.173 154.16 575.074 153.957 574.135 153.552C573.218 153.125 572.514 152.549 572.023 151.824C571.533 151.077 571.287 150.224 571.287 149.264C571.287 148.389 571.49 147.6 571.895 146.896C572.322 146.171 573.005 145.595 573.943 145.168C574.903 144.72 576.183 144.496 577.783 144.496H583.575V146.192H577.847C576.226 146.192 575.095 146.48 574.455 147.056C573.837 147.632 573.527 148.347 573.527 149.2C573.527 150.16 573.901 150.928 574.647 151.504C575.394 152.08 576.439 152.368 577.783 152.368C579.063 152.368 580.162 152.08 581.079 151.504C582.018 150.907 582.701 150.053 583.127 148.944L583.639 150.512C583.213 151.621 582.466 152.507 581.399 153.168C580.354 153.829 579.031 154.16 577.431 154.16ZM611.602 154.16C610.024 154.16 608.808 153.733 607.954 152.88C607.101 152.027 606.674 150.821 606.674 149.264V133.488H608.946V149.136C608.946 150.117 609.192 150.875 609.682 151.408C610.194 151.941 610.92 152.208 611.858 152.208C612.861 152.208 613.693 151.92 614.354 151.344L615.154 152.976C614.706 153.381 614.162 153.68 613.522 153.872C612.904 154.064 612.264 154.16 611.602 154.16ZM603.666 139.088V137.2H614.066V139.088H603.666ZM634.01 154V137.2H636.282V154H634.01ZM635.162 133.488C634.693 133.488 634.298 133.328 633.978 133.008C633.658 132.688 633.498 132.304 633.498 131.856C633.498 131.408 633.658 131.035 633.978 130.736C634.298 130.416 634.693 130.256 635.162 130.256C635.632 130.256 636.026 130.405 636.346 130.704C636.666 131.003 636.826 131.376 636.826 131.824C636.826 132.293 636.666 132.688 636.346 133.008C636.048 133.328 635.653 133.488 635.162 133.488ZM661.644 154L654.188 137.2H656.556L663.404 152.784H662.284L669.228 137.2H671.468L663.98 154H661.644ZM699.416 154V150.288L699.32 149.68V143.472C699.32 142.043 698.915 140.944 698.104 140.176C697.315 139.408 696.131 139.024 694.552 139.024C693.464 139.024 692.429 139.205 691.448 139.568C690.467 139.931 689.635 140.411 688.952 141.008L687.928 139.312C688.781 138.587 689.805 138.032 691 137.648C692.195 137.243 693.453 137.04 694.776 137.04C696.952 137.04 698.627 137.584 699.8 138.672C700.995 139.739 701.592 141.371 701.592 143.568V154H699.416ZM693.624 154.16C692.365 154.16 691.267 153.957 690.328 153.552C689.411 153.125 688.707 152.549 688.216 151.824C687.725 151.077 687.48 150.224 687.48 149.264C687.48 148.389 687.683 147.6 688.088 146.896C688.515 146.171 689.197 145.595 690.136 145.168C691.096 144.72 692.376 144.496 693.976 144.496H699.768V146.192H694.04C692.419 146.192 691.288 146.48 690.648 147.056C690.029 147.632 689.72 148.347 689.72 149.2C689.72 150.16 690.093 150.928 690.84 151.504C691.587 152.08 692.632 152.368 693.976 152.368C695.256 152.368 696.355 152.08 697.272 151.504C698.211 150.907 698.893 150.053 699.32 148.944L699.832 150.512C699.405 151.621 698.659 152.507 697.592 153.168C696.547 153.829 695.224 154.16 693.624 154.16Z" fill="#114C94"/>
</g>
<defs>
<radialGradient id="paint0_radial_2_10" cx="0" cy="0" r="1" gradientUnits="userSpaceOnUse" gradientTransform="translate(46.4107 47.0785) rotate(46.0512) scale(154.433 154.433)">
<stop stop-color="#FD9F3A"/>
<stop offset="0.364583" stop-color="#13B9D1"/>
<stop offset="0.657553" stop-color="#F1208B"/>
<stop offset="1" stop-color="#114C94"/>
</radialGradient>
<linearGradient id="paint1_linear_2_10" x1="100.471" y1="54.4241" x2="100.471" y2="110.624" gradientUnits="userSpaceOnUse">
<stop stop-color="#FD9F3A"/>
<stop offset="1" stop-color="#F1208B"/>
</linearGradient>
<linearGradient id="paint2_linear_2_10" x1="52.7546" y1="61.1019" x2="102.17" y2="152.588" gradientUnits="userSpaceOnUse">
<stop stop-color="#F1208B"/>
<stop offset="0.671875" stop-color="#114C94"/>
<stop offset="1" stop-color="#13B9D1"/>
</linearGradient>
<linearGradient id="paint3_linear_2_10" x1="717.336" y1="15" x2="674.024" y2="221.935" gradientUnits="userSpaceOnUse">
<stop stop-color="#F1208B"/>
<stop offset="1" stop-color="#114C94"/>
</linearGradient>
<linearGradient id="paint4_linear_2_10" x1="706.347" y1="15" x2="664.777" y2="217.934" gradientUnits="userSpaceOnUse">
<stop stop-color="#FD9F3A"/>
<stop offset="1" stop-color="#F1208B"/>
</linearGradient>
</defs>
</svg>
