<svg width="16" height="16" viewBox="0 0 16 16" fill="none" xmlns="http://www.w3.org/2000/svg">
<path d="M8.00003 14.5C4.41597 14.5 1.50003 11.5866 1.50003 8.00562C1.49695 7.05096 1.70477 6.1074 2.10863 5.24236C2.51249 4.37733 3.10242 3.61217 3.83628 3.00156L4.36441 2.56406L5.24472 3.61781L4.7166 4.05531C4.13771 4.53755 3.67247 5.14169 3.35413 5.82456C3.03578 6.50744 2.87219 7.2522 2.87503 8.00562C2.87503 10.8303 5.1741 13.1284 8.00003 13.1284C10.826 13.1284 13.125 10.8303 13.125 8.00562C13.125 7.2501 12.9572 6.504 12.6339 5.82116C12.3106 5.13831 11.8397 4.53573 11.2553 4.05688L10.7241 3.61937L11.5991 2.5625L12.1303 3C12.871 3.60709 13.4678 4.37097 13.8776 5.23657C14.2874 6.10218 14.5 7.04793 14.5 8.00562C14.5 11.5866 11.5841 14.5 8.00003 14.5Z" fill="white"/>
<path d="M7.3125 1.5H8.6875V8.5H7.3125V1.5Z" fill="white"/>
</svg>
