<svg width="16" height="16" viewBox="0 0 16 16" fill="none" xmlns="http://www.w3.org/2000/svg">
<path d="M15 12.9999H14V7.22179C14 7.08339 13.9713 6.94649 13.9157 6.81976C13.8601 6.69303 13.7788 6.57922 13.6769 6.48554L8.67688 1.76804C8.67443 1.76591 8.67213 1.76361 8.67 1.76116C8.48591 1.59375 8.24602 1.50098 7.99719 1.50098C7.74836 1.50098 7.50846 1.59375 7.32438 1.76116L7.3175 1.76804L2.32312 6.48554C2.22125 6.57922 2.13993 6.69303 2.08431 6.81976C2.02869 6.94649 1.99998 7.08339 2 7.22179V12.9999H1C0.867392 12.9999 0.740215 13.0526 0.646447 13.1464C0.552678 13.2401 0.5 13.3673 0.5 13.4999C0.5 13.6325 0.552678 13.7597 0.646447 13.8535C0.740215 13.9472 0.867392 13.9999 1 13.9999H15C15.1326 13.9999 15.2598 13.9472 15.3536 13.8535C15.4473 13.7597 15.5 13.6325 15.5 13.4999C15.5 13.3673 15.4473 13.2401 15.3536 13.1464C15.2598 13.0526 15.1326 12.9999 15 12.9999ZM3 7.22179L3.00688 7.21554L8 2.49991L12.9937 7.21429L13.0006 7.22054V12.9999H10V9.99991C10 9.7347 9.89464 9.48034 9.70711 9.29281C9.51957 9.10527 9.26522 8.99991 9 8.99991H7C6.73478 8.99991 6.48043 9.10527 6.29289 9.29281C6.10536 9.48034 6 9.7347 6 9.99991V12.9999H3V7.22179ZM9 12.9999H7V9.99991H9V12.9999Z" fill="white"/>
</svg>
