<svg width="16" height="16" viewBox="0 0 16 16" fill="none" xmlns="http://www.w3.org/2000/svg">
<path d="M2 6.66667C2 7.77124 2.89543 8.66667 4 8.66667H5.33333C6.4379 8.66667 7.33333 7.77124 7.33333 6.66667V4C7.33333 2.89543 6.4379 2 5.33333 2H4C2.89543 2 2 2.89543 2 4V6.66667ZM2 12C2 13.1046 2.89543 14 4 14H5.33333C6.4379 14 7.33333 13.1046 7.33333 12C7.33333 10.8954 6.4379 10 5.33333 10H4C2.89543 10 2 10.8954 2 12ZM8.66667 12C8.66667 13.1046 9.5621 14 10.6667 14H12C13.1046 14 14 13.1046 14 12V9.33333C14 8.22876 13.1046 7.33333 12 7.33333H10.6667C9.5621 7.33333 8.66667 8.22876 8.66667 9.33333V12ZM10.6667 2C9.5621 2 8.66667 2.89543 8.66667 4C8.66667 5.10457 9.5621 6 10.6667 6H12C13.1046 6 14 5.10457 14 4C14 2.89543 13.1046 2 12 2H10.6667Z" fill="white"/>
</svg>
