<svg width="128" height="128" viewBox="0 0 128 128" fill="none" xmlns="http://www.w3.org/2000/svg">
<path d="M72.212 49.068L91.252 78.936L92.744 81.176L97.224 78.564L95.732 76.324L76.692 46.456L75.2 43.84L70.72 46.452L72.212 49.068ZM51.304 46.08L32.264 75.948L30.772 78.188L35.252 80.8L36.744 78.932L55.784 49.064L57.276 46.824L52.8 43.84L51.304 46.08Z" fill="#EB00FF"/>
<path d="M64.0001 52.428C69.2375 52.3934 74.2506 50.2975 77.9541 46.594C81.6576 42.8905 83.7535 37.8774 83.7881 32.64C83.7685 27.3633 81.689 22.3028 77.9927 18.537C74.2964 14.7712 69.2755 12.5978 64.0001 12.48C58.7627 12.5146 53.7496 14.6105 50.0461 18.314C46.3426 22.0175 44.2467 27.0306 44.2121 32.268C44.2316 37.5447 46.3111 42.6052 50.0075 46.371C53.7038 50.1368 58.7246 52.3102 64.0001 52.428ZM64.0001 47.2C60.1398 47.1957 56.4389 45.6604 53.7093 42.9308C50.9797 40.2012 49.4443 36.5002 49.4401 32.64C49.4401 28.7784 50.9741 25.075 53.7046 22.3445C56.4351 19.614 60.1385 18.08 64.0001 18.08C67.8616 18.08 71.565 19.614 74.2956 22.3445C77.0261 25.075 78.5601 28.7784 78.5601 32.64C78.5558 36.5002 77.0205 40.2012 74.2909 42.9308C71.5613 45.6604 67.8603 47.1957 64.0001 47.2ZM100.212 115.52C104.126 115.52 107.952 114.359 111.206 112.185C114.46 110.011 116.996 106.92 118.494 103.305C119.992 99.6887 120.383 95.71 119.62 91.8715C118.856 88.033 116.972 84.5071 114.204 81.7397C111.437 78.9723 107.911 77.0877 104.073 76.3242C100.234 75.5607 96.2553 75.9525 92.6395 77.4503C89.0238 78.948 85.9333 81.4842 83.759 84.7384C81.5846 87.9925 80.4241 91.8183 80.4241 95.732C80.4587 100.969 82.5546 105.982 86.2581 109.686C89.9616 113.389 94.9747 115.485 100.212 115.52ZM100.212 110.292C96.3518 110.288 92.6509 108.752 89.9213 106.023C87.1917 103.293 85.6563 99.5922 85.6521 95.732C85.6521 91.8704 87.1861 88.167 89.9166 85.4365C92.6471 82.706 96.3505 81.172 100.212 81.172C104.074 81.172 107.777 82.706 110.508 85.4365C113.238 88.167 114.772 91.8704 114.772 95.732C114.768 99.5922 113.232 103.293 110.503 106.023C107.773 108.752 104.072 110.288 100.212 110.292ZM27.7881 115.52C30.4101 115.557 33.0134 115.073 35.4466 114.095C37.8798 113.118 40.0945 111.666 41.9618 109.825C43.8292 107.984 45.312 105.791 46.3241 103.371C47.3362 100.952 47.8574 98.3563 47.8574 95.734C47.8574 93.1117 47.3362 90.5156 46.3241 88.0965C45.312 85.6774 43.8292 83.4836 41.9618 81.6426C40.0945 79.8016 37.8798 78.3502 35.4466 77.3725C33.0134 76.3949 30.4101 75.9107 27.7881 75.948C25.1661 75.9107 22.5628 76.3949 20.1296 77.3725C17.6964 78.3502 15.4817 79.8016 13.6143 81.6426C11.747 83.4836 10.2642 85.6774 9.25205 88.0965C8.23995 90.5156 7.71875 93.1117 7.71875 95.734C7.71875 98.3563 8.23995 100.952 9.25205 103.371C10.2642 105.791 11.747 107.984 13.6143 109.825C15.4817 111.666 17.6964 113.118 20.1296 114.095C22.5628 115.073 25.1661 115.557 27.7881 115.52ZM27.7881 110.292C23.9278 110.288 20.2269 108.752 17.4973 106.023C14.7677 103.293 13.2323 99.5922 13.2281 95.732C13.2959 91.8916 14.8517 88.2275 17.5676 85.5115C20.2836 82.7956 23.9477 81.2398 27.7881 81.172C31.6284 81.2398 35.2926 82.7956 38.0085 85.5115C40.7245 88.2275 42.2803 91.8916 42.3481 95.732C42.3438 99.5922 40.8085 103.293 38.0789 106.023C35.3493 108.752 31.6483 110.288 27.7881 110.292Z" fill="#EB00FF"/>
<path d="M27.7881 102.452C31.4995 102.452 34.5081 99.4433 34.5081 95.732C34.5081 92.0206 31.4995 89.012 27.7881 89.012C24.0768 89.012 21.0681 92.0206 21.0681 95.732C21.0681 99.4433 24.0768 102.452 27.7881 102.452Z" fill="white"/>
</svg>
