<svg width="128" height="128" viewBox="0 0 128 128" fill="none" xmlns="http://www.w3.org/2000/svg">
<path d="M117.19 105C110.335 92.9685 99.6304 83.5938 86.8 78.385C93.1804 73.5997 97.8934 66.9281 100.271 59.3154C102.65 51.7026 102.572 43.5346 100.05 35.9683C97.5279 28.4021 92.6891 21.8212 86.219 17.1578C79.7489 12.4944 71.9755 9.985 64 9.985C56.0244 9.985 48.2511 12.4944 41.781 17.1578C35.3109 21.8212 30.4721 28.4021 27.95 35.9683C25.4279 43.5346 25.3504 51.7026 27.7285 59.3154C30.1065 66.9281 34.8196 73.5997 41.2 78.385C28.3696 83.5938 17.6652 92.9685 10.81 105C10.3852 105.683 10.1021 106.444 9.97748 107.239C9.85286 108.034 9.88929 108.845 10.0846 109.626C10.2799 110.406 10.6301 111.139 11.1143 111.781C11.5986 112.423 12.207 112.962 12.9034 113.364C13.5999 113.766 14.3701 114.025 15.1684 114.123C15.9666 114.222 16.7766 114.159 17.5501 113.939C18.3236 113.718 19.0448 113.344 19.671 112.84C20.2972 112.335 20.8154 111.709 21.195 111C30.255 95.34 46.255 86 64 86C81.745 86 97.745 95.345 106.805 111C107.628 112.323 108.932 113.274 110.443 113.652C111.954 114.03 113.553 113.806 114.902 113.027C116.25 112.247 117.243 110.974 117.67 109.476C118.097 107.978 117.925 106.373 117.19 105ZM38 48C38 42.8577 39.5249 37.8309 42.3818 33.5552C45.2387 29.2795 49.2993 25.947 54.0502 23.9791C58.8011 22.0113 64.0288 21.4964 69.0723 22.4996C74.1158 23.5028 78.7486 25.9791 82.3848 29.6152C86.0209 33.2514 88.4972 37.8841 89.5004 42.9277C90.5036 47.9712 89.9887 53.1989 88.0208 57.9498C86.053 62.7006 82.7205 66.7613 78.4448 69.6182C74.1691 72.4751 69.1423 74 64 74C57.1068 73.9921 50.4982 71.2502 45.624 66.376C40.7497 61.5018 38.0079 54.8932 38 48Z" fill="#EB00FF"/>
</svg>
