<svg width="128" height="128" viewBox="0 0 128 128" fill="none" xmlns="http://www.w3.org/2000/svg">
<path d="M69.3333 10.6667V64H58.6666V10.6667H69.3333ZM89.4933 19.8827L93.8079 23.024C102.458 29.3172 108.894 38.1865 112.194 48.3615C115.495 58.5365 115.491 69.4951 112.182 79.6673C108.873 89.8396 102.429 98.7037 93.7743 104.99C85.1193 111.276 74.6968 114.661 63.9999 114.661C53.303 114.661 42.8805 111.276 34.2255 104.99C25.5705 98.7037 19.1271 89.8396 15.8182 79.6673C12.5093 69.4951 12.5048 58.5365 15.8054 48.3615C19.1059 38.1865 25.5421 29.3172 34.1919 23.024L38.5013 19.8774L44.7839 28.5014L40.4746 31.648C33.644 36.6152 28.5609 43.617 25.9537 51.6502C23.3464 59.6834 23.3487 68.3357 25.9603 76.3674C28.5719 84.3992 33.6587 91.3983 40.492 96.3618C47.3252 101.325 55.5542 103.999 63.9999 103.999C72.4456 103.999 80.6746 101.325 87.5078 96.3618C94.3411 91.3983 99.4279 84.3992 102.04 76.3674C104.651 68.3357 104.653 59.6834 102.046 51.6502C99.4389 43.617 94.3558 36.6152 87.5253 31.648L83.2159 28.5014L89.4933 19.8827Z" fill="#EB00FF"/>
</svg>
