<svg width="128" height="128" viewBox="0 0 128 128" fill="none" xmlns="http://www.w3.org/2000/svg">
<g clip-path="url(#clip0_6_70)">
<path d="M128 99.808V125.408C128 126.944 126.976 127.968 125.44 127.968H99.84C98.304 127.968 97.28 126.944 97.28 125.408V99.808C97.28 98.272 98.304 97.248 99.84 97.248H110.08V87.008H66.56V97.248H76.8C78.336 97.248 79.36 98.272 79.36 99.808V125.408C79.36 126.944 78.336 127.968 76.8 127.968H51.2C49.664 127.968 48.64 126.944 48.64 125.408V99.808C48.64 98.272 49.664 97.248 51.2 97.248H61.44V87.008H17.92V97.248H28.16C29.696 97.248 30.72 98.272 30.72 99.808V125.408C30.72 126.944 29.696 127.968 28.16 127.968H2.56C1.024 127.968 0 126.944 0 125.408V99.808C0 98.272 1.024 97.248 2.56 97.248H12.8V84.448C12.8 82.912 13.824 81.888 15.36 81.888H61.44V74.208H66.56V81.888H112.64C114.176 81.888 115.2 82.912 115.2 84.448V97.248H125.44C126.976 97.248 128 98.272 128 99.808ZM53.76 122.848H74.24V102.368H53.76V122.848ZM5.12 122.848H25.6V102.368H5.12V122.848ZM102.4 122.848H122.88V102.368H102.4V122.848ZM33.28 51.424V18.912C33.28 17.888 33.792 17.12 34.56 16.608L62.72 0.223982C63.5541 -0.0320176 64.4459 -0.0320176 65.28 0.223982L93.44 16.608C94.208 17.12 94.72 17.888 94.72 18.912V51.424C94.72 52.192 94.208 52.96 93.44 53.472L65.28 69.856C64.9387 70.0267 64.512 70.112 64 70.112C63.488 70.112 63.0613 70.0267 62.72 69.856L34.56 53.472C33.792 52.96 33.28 52.192 33.28 51.424ZM89.6 49.888V23.264L66.56 36.576V63.2L89.6 49.888ZM38.4 49.888L61.44 63.2V36.576L38.4 23.264V49.888ZM40.96 18.912L64 31.968L87.04 18.912L64 5.59998L40.96 18.912Z" fill="#EB00FF"/>
</g>
<defs>
<clipPath id="clip0_6_70">
<rect width="128" height="128" fill="white"/>
</clipPath>
</defs>
</svg>
