<svg width="128" height="128" viewBox="0 0 128 128" fill="none" xmlns="http://www.w3.org/2000/svg">
<path d="M47.9999 90.6667V96C47.9999 100.243 49.6856 104.313 52.6862 107.314C55.6868 110.314 59.7565 112 63.9999 112C68.2434 112 72.313 110.314 75.3136 107.314C78.3142 104.313 79.9999 100.243 79.9999 96V90.6667M53.3333 26.6667C53.3333 23.8377 54.4571 21.1246 56.4574 19.1242C58.4578 17.1238 61.1709 16 63.9999 16C66.8289 16 69.542 17.1238 71.5424 19.1242C73.5428 21.1246 74.6666 23.8377 74.6666 26.6667C80.7914 29.5628 86.0127 34.0711 89.7709 39.7083C93.529 45.3455 95.6823 51.8991 95.9999 58.6667V74.6667C96.4013 77.9824 97.5756 81.1576 99.4283 83.9367C101.281 86.7157 103.76 89.0209 106.667 90.6667H21.3333C24.2396 89.0209 26.7189 86.7157 28.5716 83.9367C30.4243 81.1576 31.5986 77.9824 31.9999 74.6667V58.6667C32.3176 51.8991 34.4709 45.3455 38.229 39.7083C41.9871 34.0711 47.2084 29.5628 53.3333 26.6667Z" stroke="#EB00FF" stroke-width="10.6667" stroke-linecap="round" stroke-linejoin="round"/>
</svg>
