<svg width="430" height="71" viewBox="0 0 430 71" fill="none" xmlns="http://www.w3.org/2000/svg">
<path d="M125.751 1.64062C126.695 1.64062 127.606 1.80339 128.485 2.12891C129.364 2.45443 130.129 2.89388 130.78 3.44727C131.464 4.00065 132.001 4.66797 132.391 5.44922C132.782 6.19792 132.977 7.01172 132.977 7.89062C132.977 8.3138 132.945 8.7207 132.88 9.11133C132.847 9.4694 132.798 9.79492 132.733 10.0879C132.635 10.446 132.554 10.7552 132.489 11.0156C130.275 19.707 127.964 28.5775 125.555 37.627C123.147 46.6439 120.835 55.4818 118.622 64.1406C118.134 65.2474 117.483 66.224 116.669 67.0703C115.985 67.819 115.09 68.5026 113.983 69.1211C112.909 69.707 111.558 70 109.93 70H108.368C106.74 70 105.373 69.707 104.266 69.1211C103.16 68.5026 102.264 67.819 101.581 67.0703C100.767 66.224 100.132 65.2474 99.6765 64.1406L85.8093 11.0156C85.7117 10.7552 85.6303 10.446 85.5652 10.0879C85.4024 9.43685 85.321 8.70443 85.321 7.89062C85.321 7.01172 85.5001 6.19792 85.8582 5.44922C86.2488 4.66797 86.7696 4.00065 87.4207 3.44727C88.0717 2.89388 88.8367 2.45443 89.7156 2.12891C90.5945 1.80339 91.5385 1.64062 92.5476 1.64062C94.1101 1.64062 95.3634 1.98242 96.3074 2.66602C97.2839 3.34961 98.0489 4.11458 98.6023 4.96094C99.2208 5.9375 99.6765 7.04427 99.9695 8.28125C100.36 9.84375 100.783 11.6178 101.239 13.6035C101.695 15.5566 102.15 17.5911 102.606 19.707C103.062 21.8229 103.518 23.9876 103.973 26.2012C104.462 28.3822 104.917 30.498 105.341 32.5488C106.35 37.3665 107.359 42.2982 108.368 47.3438H109.93C111.037 42.2982 112.111 37.3665 113.153 32.5488C113.576 30.498 114.016 28.3822 114.471 26.2012C114.96 23.9876 115.432 21.8229 115.887 19.707C116.343 17.5911 116.783 15.5566 117.206 13.6035C117.629 11.6178 118.003 9.84375 118.329 8.28125C118.654 7.04427 119.126 5.9375 119.745 4.96094C120.298 4.11458 121.047 3.34961 121.991 2.66602C122.935 1.98242 124.188 1.64062 125.751 1.64062ZM141.571 12.8711C141.571 11.4714 141.636 10.1042 141.766 8.76953C141.929 7.4349 142.271 6.24674 142.792 5.20508C143.345 4.13086 144.159 3.26823 145.233 2.61719C146.307 1.96615 147.788 1.64062 149.677 1.64062C151.565 1.64062 153.046 1.96615 154.12 2.61719C155.194 3.26823 155.992 4.13086 156.512 5.20508C157.066 6.24674 157.408 7.4349 157.538 8.76953C157.701 10.1042 157.782 11.4714 157.782 12.8711V58.7695C157.782 60.2018 157.717 61.5853 157.587 62.9199C157.456 64.2546 157.115 65.459 156.561 66.5332C156.04 67.5749 155.227 68.4212 154.12 69.0723C153.046 69.6908 151.565 70 149.677 70C147.788 70 146.307 69.6908 145.233 69.0723C144.159 68.4212 143.345 67.5749 142.792 66.5332C142.271 65.459 141.929 64.2546 141.766 62.9199C141.636 61.5853 141.571 60.2018 141.571 58.7695V12.8711ZM194.012 1.64062C196.975 1.64062 199.725 2.01497 202.264 2.76367C204.836 3.51237 207.066 4.63542 208.954 6.13281C210.874 7.59766 212.372 9.43685 213.446 11.6504C214.553 13.8639 215.106 16.4518 215.106 19.4141V49.6875C215.106 52.2266 214.83 54.4727 214.276 56.4258C213.723 58.3464 212.99 60.0228 212.079 61.4551C211.2 62.8548 210.191 64.0592 209.052 65.0684C207.912 66.0449 206.757 66.8424 205.585 67.4609C202.785 68.9583 199.611 69.8047 196.063 70H179.852C177.997 70 176.565 69.6908 175.555 69.0723C174.546 68.4212 173.814 67.5749 173.358 66.5332C172.902 65.459 172.626 64.2546 172.528 62.9199C172.463 61.5853 172.43 60.2018 172.43 58.7695V12.7734C172.43 11.3737 172.463 10.0065 172.528 8.67188C172.626 7.33724 172.902 6.14909 173.358 5.10742C173.814 4.06576 174.546 3.23568 175.555 2.61719C176.565 1.96615 177.997 1.64062 179.852 1.64062H194.012ZM187.274 13.0664V58.3789H193.622C195.022 58.3138 196.275 57.9883 197.382 57.4023C197.837 57.1745 198.293 56.8652 198.749 56.4746C199.205 56.084 199.611 55.6283 199.969 55.1074C200.328 54.554 200.604 53.903 200.8 53.1543C201.027 52.4056 201.141 51.543 201.141 50.5664V21.7578C201.141 20.6836 201.027 19.7396 200.8 18.9258C200.604 18.0794 200.328 17.347 199.969 16.7285C199.611 16.11 199.205 15.5892 198.749 15.166C198.293 14.7428 197.837 14.401 197.382 14.1406C196.275 13.5221 195.022 13.1641 193.622 13.0664H187.274ZM238.544 40.5078H254.071L246.844 14.3359H245.77L238.544 40.5078ZM269.208 45.293C269.273 47.5065 269.354 49.7689 269.452 52.0801C269.55 54.3913 269.598 56.6211 269.598 58.7695V60.2344C269.598 61.4714 269.55 62.6758 269.452 63.8477C269.387 64.987 269.143 66.0286 268.719 66.9727C268.296 67.8841 267.629 68.6165 266.718 69.1699C265.806 69.7233 264.52 70 262.86 70C261.167 70 259.865 69.7233 258.954 69.1699C258.042 68.6165 257.359 67.8841 256.903 66.9727C256.48 66.0612 256.219 65.0195 256.122 63.8477C256.057 62.6758 256.024 61.4714 256.024 60.2344V53.3984H236.493V60.2344C236.493 61.4714 236.444 62.6758 236.346 63.8477C236.281 65.0195 236.021 66.0612 235.565 66.9727C235.142 67.8841 234.475 68.6165 233.563 69.1699C232.652 69.7233 231.35 70 229.657 70C227.964 70 226.662 69.7233 225.751 69.1699C224.839 68.6165 224.172 67.8841 223.749 66.9727C223.326 66.0286 223.081 64.987 223.016 63.8477C222.951 62.6758 222.919 61.4714 222.919 60.2344V58.7695C222.919 57.7604 222.919 56.6862 222.919 55.5469C222.951 54.4076 222.984 53.252 223.016 52.0801C223.049 50.9082 223.081 49.7526 223.114 48.6133C223.147 47.4414 223.179 46.3346 223.212 45.293C224.839 39.6289 226.548 33.8997 228.339 28.1055C230.129 22.2786 231.838 16.5169 233.466 10.8203C233.791 9.61589 234.182 8.46029 234.637 7.35352C235.093 6.21419 235.695 5.23763 236.444 4.42383C237.193 3.57747 238.153 2.91016 239.325 2.42188C240.497 1.90104 241.994 1.64062 243.817 1.64062H248.7C250.49 1.64062 251.971 1.90104 253.143 2.42188C254.348 2.91016 255.324 3.57747 256.073 4.42383C256.822 5.23763 257.408 6.21419 257.831 7.35352C258.287 8.46029 258.693 9.61589 259.052 10.8203L269.208 45.293ZM292.645 18.8281C292.678 20.1953 293.068 21.4323 293.817 22.5391C294.598 23.6133 295.608 24.6387 296.844 25.6152C298.114 26.5918 299.546 27.5521 301.141 28.4961C302.736 29.4076 304.364 30.3841 306.024 31.4258C307.717 32.4349 309.361 33.5417 310.956 34.7461C312.551 35.9505 313.983 37.3177 315.253 38.8477C316.522 40.3776 317.548 42.1029 318.329 44.0234C319.11 45.944 319.533 48.125 319.598 50.5664V50.957C319.598 53.6263 319.273 55.9538 318.622 57.9395C317.971 59.9251 317.108 61.6341 316.034 63.0664C314.96 64.4987 313.706 65.6868 312.274 66.6309C310.842 67.5423 309.328 68.2747 307.733 68.8281C306.171 69.3815 304.576 69.7721 302.948 70C301.353 70.2279 299.839 70.3581 298.407 70.3906H297.919C295.152 70.3906 292.727 70.1139 290.643 69.5605C288.56 69.0072 286.77 68.2747 285.272 67.3633C283.775 66.4193 282.522 65.3451 281.512 64.1406C280.536 62.9362 279.755 61.6992 279.169 60.4297C278.583 59.1276 278.16 57.8418 277.899 56.5723C277.639 55.3027 277.509 54.1146 277.509 53.0078C277.509 51.8685 277.704 50.8757 278.094 50.0293C278.485 49.1829 278.99 48.4993 279.608 47.9785C280.259 47.4251 280.992 47.0182 281.805 46.7578C282.652 46.4974 283.531 46.3672 284.442 46.3672C285.288 46.3672 286.151 46.4974 287.03 46.7578C287.941 47.0182 288.755 47.4251 289.471 47.9785C290.22 48.4993 290.822 49.1829 291.278 50.0293C291.766 50.8431 292.027 51.8034 292.059 52.9102C292.124 55.3516 292.678 57.028 293.719 57.9395C294.761 58.8184 296.259 59.2578 298.212 59.2578C299.188 59.2253 300.083 59.1113 300.897 58.916C301.744 58.6882 302.46 58.3138 303.046 57.793C303.632 57.2396 304.087 56.5234 304.413 55.6445C304.771 54.7331 304.95 53.5938 304.95 52.2266C304.95 50.5339 304.559 49.0039 303.778 47.6367C303.029 46.2695 302.037 45 300.8 43.8281C299.563 42.6562 298.147 41.5495 296.552 40.5078C294.956 39.4336 293.329 38.3757 291.669 37.334C290.009 36.2598 288.381 35.153 286.786 34.0137C285.223 32.8418 283.807 31.5723 282.538 30.2051C281.268 28.8379 280.243 27.3242 279.462 25.6641C278.713 24.0039 278.322 22.1159 278.29 20V19.2188C278.322 15.7357 278.778 12.8385 279.657 10.5273C280.568 8.21615 281.887 6.37695 283.612 5.00977C285.37 3.64258 287.518 2.68229 290.057 2.12891C292.596 1.54297 295.51 1.25 298.798 1.25H300.067C303.062 1.25 305.601 1.57552 307.684 2.22656C309.768 2.8776 311.493 3.70768 312.86 4.7168C314.26 5.72591 315.35 6.86523 316.132 8.13477C316.945 9.4043 317.548 10.6576 317.938 11.8945C318.329 13.1315 318.573 14.2871 318.671 15.3613C318.768 16.4355 318.817 17.2982 318.817 17.9492C318.817 18.9258 318.622 19.821 318.231 20.6348C317.873 21.416 317.369 22.0833 316.718 22.6367C316.099 23.1901 315.35 23.6296 314.471 23.9551C313.625 24.248 312.697 24.3945 311.688 24.3945C310.907 24.3945 310.126 24.248 309.344 23.9551C308.563 23.6296 307.863 23.2227 307.245 22.7344C306.626 22.2461 306.122 21.6927 305.731 21.0742C305.341 20.4232 305.145 19.7721 305.145 19.1211C305.145 16.4518 304.657 14.5964 303.68 13.5547C302.736 12.513 301.337 11.9922 299.481 11.9922C298.602 11.9922 297.74 12.041 296.893 12.1387C296.08 12.2363 295.347 12.513 294.696 12.9688C294.078 13.3919 293.573 14.0592 293.182 14.9707C292.824 15.8822 292.645 17.168 292.645 18.8281ZM329.852 12.8711C329.852 11.4714 329.917 10.1042 330.048 8.76953C330.178 7.4349 330.487 6.24674 330.975 5.20508C331.496 4.13086 332.245 3.26823 333.221 2.61719C334.198 1.96615 335.549 1.64062 337.274 1.64062C338.967 1.64062 340.302 1.96615 341.278 2.61719C342.287 3.26823 343.036 4.13086 343.524 5.20508C344.045 6.24674 344.371 7.4349 344.501 8.76953C344.631 10.1042 344.696 11.4714 344.696 12.8711V28.2031H358.075V12.8711C358.075 11.4714 358.14 10.1042 358.27 8.76953C358.4 7.4349 358.71 6.24674 359.198 5.20508C359.719 4.13086 360.468 3.26823 361.444 2.61719C362.421 1.96615 363.772 1.64062 365.497 1.64062C367.19 1.64062 368.524 1.96615 369.501 2.61719C370.51 3.26823 371.259 4.13086 371.747 5.20508C372.268 6.24674 372.593 7.4349 372.723 8.76953C372.854 10.1042 372.919 11.4714 372.919 12.8711V58.7695C372.919 60.2018 372.854 61.5853 372.723 62.9199C372.593 64.2546 372.268 65.459 371.747 66.5332C371.259 67.5749 370.51 68.4212 369.501 69.0723C368.524 69.6908 367.19 70 365.497 70C363.772 70 362.421 69.6908 361.444 69.0723C360.468 68.4212 359.719 67.5749 359.198 66.5332C358.71 65.459 358.4 64.2546 358.27 62.9199C358.14 61.5853 358.075 60.2018 358.075 58.7695V42.5586H344.696V58.7695C344.696 60.2018 344.631 61.5853 344.501 62.9199C344.371 64.2546 344.045 65.459 343.524 66.5332C343.036 67.5749 342.287 68.4212 341.278 69.0723C340.302 69.6908 338.967 70 337.274 70C335.549 70 334.198 69.6908 333.221 69.0723C332.245 68.4212 331.496 67.5749 330.975 66.5332C330.487 65.459 330.178 64.2546 330.048 62.9199C329.917 61.5853 329.852 60.2018 329.852 58.7695V12.8711ZM411.591 58.9648C411.591 60.332 411.525 61.6829 411.395 63.0176C411.265 64.3197 410.956 65.4915 410.468 66.5332C409.979 67.5749 409.247 68.4212 408.27 69.0723C407.294 69.6908 405.959 70 404.266 70C402.541 70 401.19 69.6908 400.214 69.0723C399.237 68.4212 398.488 67.5749 397.968 66.5332C397.479 65.4915 397.17 64.3197 397.04 63.0176C396.91 61.6829 396.844 60.332 396.844 58.9648V41.9727L382.294 15.9961C381.512 14.6289 380.764 13.2943 380.048 11.9922C379.331 10.6576 378.973 9.32292 378.973 7.98828C378.973 7.10938 379.218 6.23047 379.706 5.35156C380.227 4.4401 381.154 3.59375 382.489 2.8125C383.954 2.03125 385.321 1.64062 386.591 1.64062C387.567 1.64062 388.446 1.86849 389.227 2.32422C390.041 2.7474 390.774 3.31706 391.425 4.0332C392.076 4.74935 392.662 5.56315 393.182 6.47461C393.703 7.35352 394.175 8.2487 394.598 9.16016L403.485 27.8125H405.048L413.934 9.16016C414.358 8.2487 414.83 7.35352 415.35 6.47461C415.871 5.56315 416.457 4.74935 417.108 4.0332C417.759 3.31706 418.475 2.7474 419.257 2.32422C420.07 1.86849 420.966 1.64062 421.942 1.64062C422.626 1.64062 423.293 1.73828 423.944 1.93359C424.595 2.12891 425.295 2.42188 426.044 2.8125C427.313 3.59375 428.208 4.4401 428.729 5.35156C429.283 6.23047 429.559 7.10938 429.559 7.98828C429.559 8.57422 429.299 9.53451 428.778 10.8691C428.257 12.1712 427.411 13.8802 426.239 15.9961L411.591 41.9727V58.9648Z" fill="url(#paint0_linear_4_54)"/>
<rect y="5.54977" width="21.2097" height="66.7713" rx="10" transform="rotate(-15 0 5.54977)" fill="#EB00FF" fill-opacity="0.5"/>
<rect x="23.2048" y="5.54977" width="21.2097" height="66.7713" rx="10" transform="rotate(-15 23.2048 5.54977)" fill="#EB00FF" fill-opacity="0.75"/>
<rect x="46.7712" y="5.54977" width="21.2097" height="66.7713" rx="10" transform="rotate(-15 46.7712 5.54977)" fill="#EB00FF"/>
<defs>
<linearGradient id="paint0_linear_4_54" x1="109.5" y1="60" x2="429" y2="60" gradientUnits="userSpaceOnUse">
<stop stop-color="#EB00FF"/>
<stop offset="1" stop-color="#EB00FF" stop-opacity="0.43"/>
</linearGradient>
</defs>
</svg>
